<?xml version="1.0" standalone="no"?>
<!DOCTYPE svg PUBLIC "-//W3C//DTD SVG 20010904//EN"
 "http://www.w3.org/TR/2001/REC-SVG-20010904/DTD/svg10.dtd">
<svg version="1.0" xmlns="http://www.w3.org/2000/svg"
 width="512.000000pt" height="512.000000pt" viewBox="0 0 512.000000 512.000000"
 preserveAspectRatio="xMidYMid meet">
<metadata>
Created by potrace 1.11, written by Peter Selinger 2001-2013
</metadata>
<g transform="translate(0.000000,512.000000) scale(0.100000,-0.100000)"
fill="#000000" stroke="none">
<path d="M1950 5113 c-112 -17 -248 -64 -337 -115 -109 -62 -241 -192 -280
-273 -9 -19 -34 -42 -66 -60 -29 -15 -54 -31 -57 -34 -3 -3 -21 -18 -40 -32
-131 -99 -229 -240 -275 -394 -15 -48 -24 -160 -25 -280 0 -6 -26 -23 -57 -37
-167 -78 -374 -262 -472 -422 -93 -150 -147 -325 -152 -491 -2 -62 -8 -88 -25
-115 -70 -114 -125 -259 -148 -388 -18 -103 -14 -315 9 -412 44 -188 142 -374
273 -519 37 -41 39 -46 29 -75 -12 -33 -16 -233 -5 -276 51 -212 161 -369 347
-493 31 -20 64 -40 73 -43 10 -3 21 -17 24 -32 11 -44 60 -147 92 -194 139
-200 402 -350 713 -406 147 -26 397 -24 525 6 159 36 317 107 405 183 19 16
36 29 39 29 3 0 32 -20 64 -44 112 -84 262 -145 429 -176 141 -25 384 -21 522
10 381 85 635 269 741 535 24 60 39 84 61 95 183 100 336 281 387 460 31 111
38 240 16 330 l-12 52 33 36 c19 20 40 42 47 50 27 30 111 160 139 217 164
326 152 724 -31 1028 -30 49 -34 66 -40 151 -23 378 -241 699 -608 896 l-73
39 -1 98 c-1 54 -7 120 -13 148 -48 204 -187 385 -382 499 -32 18 -58 45 -82
84 -111 178 -351 329 -571 359 -67 10 -241 10 -288 1 -95 -19 -203 -68 -287
-130 -29 -22 -56 -36 -60 -31 -11 18 -126 92 -174 112 -40 17 -87 33 -147 48
-22 6 -231 11 -260 6z m292 -282 c74 -29 150 -97 184 -167 l27 -56 0 -2002 0
-2003 -22 -47 c-31 -64 -111 -148 -179 -190 -63 -38 -189 -84 -261 -94 -77
-12 -322 -6 -386 8 -33 7 -64 15 -70 16 -32 7 -119 40 -173 67 -189 90 -314
248 -315 397 0 102 46 232 112 319 98 129 300 194 474 154 154 -35 255 -140
276 -288 6 -39 17 -76 28 -87 55 -63 162 -54 208 16 29 44 7 177 -47 278 -31
59 -112 151 -160 182 l-27 18 47 37 c118 94 191 229 198 368 3 61 2 65 -32 98
-21 21 -45 35 -62 36 -100 4 -144 -34 -155 -137 -12 -120 -105 -225 -239 -271
-22 -8 -79 -16 -127 -19 -244 -15 -404 -76 -536 -207 -81 -81 -136 -174 -172
-291 l-15 -49 -63 65 c-126 130 -173 295 -129 453 36 130 35 133 -65 239 -42
45 -92 104 -109 130 -200 295 -201 669 -5 965 36 54 37 56 39 166 2 113 9 152
45 260 63 187 229 368 431 469 l57 29 70 -65 c90 -84 198 -138 356 -177 l40
-10 0 -58 c0 -111 53 -239 135 -324 68 -71 142 -78 201 -19 44 44 40 88 -16
162 -78 104 -91 204 -41 313 43 94 135 161 276 199 47 13 59 21 77 53 19 34
20 42 8 76 -31 91 -121 102 -282 36 -111 -47 -193 -110 -270 -208 l-19 -23
-64 16 c-136 34 -231 99 -288 196 -22 37 -27 59 -30 136 -5 101 11 170 57 254
36 66 146 170 221 208 83 43 106 65 138 130 59 121 210 228 367 262 70 15 224
5 287 -19z m949 2 c136 -44 249 -138 313 -259 25 -48 42 -65 86 -91 112 -65
132 -78 180 -126 89 -87 139 -195 145 -314 3 -78 -12 -157 -41 -201 -51 -81
-160 -150 -281 -178 l-68 -16 -14 24 c-8 13 -42 50 -77 83 -94 91 -260 166
-367 166 -80 0 -140 -84 -106 -148 19 -34 47 -52 114 -69 111 -29 192 -88 240
-175 27 -48 30 -63 30 -139 0 -93 -11 -121 -71 -195 -40 -49 -50 -86 -34 -125
15 -35 45 -56 94 -65 67 -13 119 22 187 127 45 70 69 141 76 227 3 42 8 79 12
83 3 3 20 8 37 11 40 6 147 44 199 70 63 31 125 77 172 125 l43 45 42 -19
c120 -54 269 -175 343 -278 109 -153 150 -277 154 -466 2 -100 4 -107 36 -156
137 -209 178 -418 131 -672 -8 -41 -47 -145 -76 -203 -39 -76 -95 -151 -174
-233 -42 -44 -77 -89 -77 -100 -3 -34 -2 -50 5 -76 35 -141 38 -206 15 -295
-18 -68 -69 -153 -131 -216 l-60 -60 -27 78 c-88 253 -315 429 -591 458 -30 3
-86 7 -125 10 -188 11 -330 131 -350 295 -11 92 -47 130 -124 130 -104 0 -141
-66 -116 -203 20 -107 119 -253 211 -314 l24 -15 -68 -63 c-108 -100 -172
-228 -173 -346 -1 -69 14 -98 62 -121 52 -26 134 -7 163 37 8 12 18 47 21 76
29 254 332 382 601 254 40 -19 91 -54 117 -81 86 -86 149 -252 142 -375 -10
-189 -214 -370 -501 -445 -83 -22 -123 -27 -244 -28 -207 -2 -295 15 -415 77
-108 56 -193 142 -231 234 -12 27 -14 355 -14 2036 l0 2003 35 60 c56 94 136
152 239 174 61 13 223 4 287 -17z"/>
<path d="M994 3111 c-49 -22 -68 -60 -69 -140 -1 -107 37 -244 98 -346 34 -58
46 -73 108 -140 l28 -30 -35 -55 c-92 -145 -104 -376 -23 -445 57 -47 150 -43
200 11 20 22 23 33 20 77 -11 172 8 236 94 316 105 96 248 132 401 102 62 -12
101 -2 140 34 43 41 46 89 9 134 -31 36 -65 48 -170 59 -140 15 -274 -4 -387
-55 l-58 -26 -25 29 c-80 91 -123 197 -131 319 -7 108 -19 133 -68 156 -23 10
-52 19 -66 19 -14 0 -43 -9 -66 -19z"/>
<path d="M3974 3119 c-61 -17 -77 -48 -85 -161 -8 -114 -29 -179 -84 -263 -53
-80 -67 -90 -102 -72 -147 76 -441 94 -548 34 -54 -30 -74 -81 -51 -129 24
-50 68 -72 135 -68 84 6 233 4 259 -3 96 -26 199 -105 244 -189 20 -38 23 -57
23 -166 l0 -124 30 -24 c36 -28 81 -39 127 -29 86 19 111 66 111 215 0 115
-16 170 -74 261 -27 42 -31 79 -9 79 24 0 148 199 172 275 42 130 48 287 13
325 -39 43 -98 57 -161 39z"/>
</g>
</svg>
